<svg xmlns="http://www.w3.org/2000/svg" width="4096" height="4096" viewBox="0 0 4096 4096"><style>.a{fill:#374F64;}.b{fill:#394F64;}.c{fill:#D34242;}</style><path d="M1862.1 3199c-2 48.9-4 97.9-6 147.4 -268.5-97.5-433.4-298.5-566-544.4 0.8 391.4 488.9 803.1 782.1 815.7 -5.6-138.8-11.2-277.9-16.8-418.7H1862.1z" class="a"/><path d="M3534.5 1823.4c-85.1-66.2-167.6-136.1-256.3-197.1 -117.7-81-204.9-181.6-249.9-319.2 -23.9-73.2-71.6-131.9-131.6-182.1 -97.8-81.8-192.4-167.5-288.2-251.8 -240.8-211.8-447.4-449.6-572.9-749.5 -2.1-4.9-6-9.1-12.7-19 -70.8 215-114 428.4-115.5 654.7 -185.4-53-365.6-100.2-556.1-69.1 20.5 87.6 40 170.8 60.6 258.7 -171.9-16.2-333.2-18.3-483.8 71.8 48.3 53.1 49.8 107.9 27.4 163.1 -12.3 30.3-30.6 59.9-52.2 84.5 -248.5 283.6-390.5 612-413.2 989.1 -17.6 291.4 35.8 568.2 187.2 821.5 24.2 40.4 54 77.4 81.3 116 0.6-22.8-6.8-40.5-14.4-58.2 -91.4-213.9-153.8-435.4-156.4-669.3 -4.7-423.7 152.8-780.3 456-1074.1 108.1-104.8 124.3-183.4 64-318.7 26.2-3.1 51.7-9.8 76.8-8.4 129.8 7.1 259.5 16.3 395.9 25.3 28.1-77.9 12.9-161.2-37.4-245.2 196.1 19.9 378.1 65.9 549.5 159.2 -5.2-157.6 7.2-309.8 33.9-452.9 194.3 198.3 388.6 396.5 575.2 586.9 -95 9.3-201 19.7-312 30.6 26.2 55.3 51.6 118.6 85.1 177.3 36.9 64.7 95.2 95.4 172.2 85.3 19.2-2.5 39.6-1.2 58.9 2 184 30.8 299.6 159.1 419.1 289.6 -49.8 8.4-93.3 15.7-148 24.9 84.2 68.1 115.9 148.7 116.4 244.3 -13.6 0-21.2 0.7-28.7-0.2 -9-1.1-17.9-3.3-26.7-5.3 -127.9-29.9-242.1-88.7-343.1-171.2 -35.5-29-72.1-48.7-116.4-56.1 -41.9-7-83.6-15.9-125.8-20 -166.7-16-284.7 33.2-352 145.7 42 42.1 83.9 84.3 125.6 126.7 36.8-45.6 78.8-85 108.3-89.7 40.1-6.4 81.8-8.1 122.5-5.7 172.6 10.2 320 85.8 460.1 180.4 45 30.4 92.6 57.4 141.3 81.6 14.8 7.3 38.2 3.9 55.5-1.6 53.3-17 105.4-37.8 158.4-56.2 64.4-22.3 131.5-38.5 192.8-67.3 37.8-17.8 74.3-49 98.2-83.4C3602.6 1914 3589.2 1865.9 3534.5 1823.4" class="a"/><path d="M2313.1 3720.9c-728.3 0-1318.7-590.4-1318.7-1318.7 0-487.6 264.6-913.3 658-1141.5 -515.6 212.4-878.5 719.8-878.5 1312 0 783.4 635.1 1418.5 1418.5 1418.5 758.7 0 1378.2-595.6 1416.6-1344.7C3494.5 3258.1 2957.9 3720.9 2313.1 3720.9" fill="#D54143"/><path d="M2693.8 2722.9h-255.9l127.4-128.5c-48.1-48.1-96.1-96.1-144.2-144.2l-176.7 176.7v23.3l273.5 275h225.5v-152.6L2693.8 2722.9z" class="b"/><path d="M2758 2787.1v245.7l212.4 208.1v-241.4C2899.7 2928.7 2828.8 2857.9 2758 2787.1" class="b"/><polygon points="1703.1 2377.1 1703.1 2097.7 2003.5 2097.7 2003.5 2377.1 2215.4 2377.1 2215.4 2103.5 2007.8 1896 1697.3 1896 1489.7 2103.5 1489.7 2377.1 " class="c"/><polygon points="2003.5 2438.5 2003.5 2729 1703.1 2729 1703.1 2438.5 1489.7 2438.5 1489.7 2723.2 1697.3 2930.7 2007.8 2930.7 2215.4 2723.2 2215.4 2438.5 " class="b"/><polygon points="2608.6 2550.8 2758 2399.9 2758 2700.2 2970.5 2912.7 2970.5 2405.8 2763.8 2197.7 2673.6 2197.7 2464.6 2406.8 " class="c"/><polygon points="1574.7 3020.9 1623.1 2972.2 1696.3 2972.2 1745.1 3020.9 1745.1 3143.9 1695 3095.2 1695 3019.6 1624.5 3019.6 1624.5 3095.2 1691.6 3095.2 1644.2 3142.5 1623.1 3142.5 1574.7 3093.8 " class="c"/><path d="M1772.3 3094.2v-121.6h49.7v171.4L1772.3 3094.2zM1874.8 3019.9h-52.8l47.4-47.4h5.4V3019.9z" class="c"/><path d="M1902.1 3142.5v-171.7l49.7 48.7v123H1902.1zM1999.5 2972.2l-47.7 47.4h53.1v123h49.7v-123l-48.7-47.4H1999.5zM2102.1 2972.2l-47.4 47.4h53.1v75.6l49.7 48.4v-122.6l-48.7-48.7H2102.1z" class="c"/><path d="M2184.8 3020.9l48.4-48.7h73.2l48.7 48.7v72.9l-50.1 48.7h-71.9l-48.4-48.7V3020.9zM2305.1 3019.6h-70.5v75.6h70.5V3019.6z" class="c"/><path d="M2382.4 2972.2h50.1v123h52.8l-47.4 47.3h-6.8l-48.7-48.7V2972.2zM2535.4 3020.9v123l-50.1-48.7v-124.3L2535.4 3020.9z" class="c"/><path d="M2562.6 3094.2v-121.6h49.7v171.4L2562.6 3094.2zM2665.2 3019.9h-52.8l47.3-47.4h5.5V3019.9z" class="c"/><polygon points="1624.5 3064.1 1624.5 3019.6 1695 3019.6 1695 3064.1 1745.1 3064.1 1745.1 3020.9 1696.3 2972.2 1623.1 2972.2 1574.7 3020.9 1574.7 3064.1 " class="b"/><rect x="1772.3" y="2972.5" width="49.7" height="91.5" class="b"/><polygon points="1874.8 2972.5 1869.4 2972.5 1822 3019.9 1874.8 3019.9 " class="b"/><polygon points="2005 3064.1 2054.7 3064.1 2054.7 3019.6 2006 2972.2 1999.5 2972.2 1951.8 3019.6 2005 3019.6 " class="b"/><polygon points="2107.9 3064.1 2157.6 3064.1 2157.6 3020.9 2108.9 2972.2 2102.1 2972.2 2054.7 3019.6 2107.9 3019.6 " class="b"/><polygon points="1951.8 3064.1 1951.8 3019.6 1902.1 2970.8 1902.1 3064.1 " class="b"/><polygon points="2234.6 3064.1 2234.6 3019.6 2305.1 3019.6 2305.1 3064.1 2355.2 3064.1 2355.2 3020.9 2306.5 2972.2 2233.2 2972.2 2184.8 3020.9 2184.8 3064.1 " class="b"/><polygon points="2535.4 3064.1 2535.4 3020.9 2485.3 2970.8 2485.3 3064.1 " class="b"/><rect x="2382.4" y="2972.2" width="50.1" height="91.8" class="b"/><polygon points="2659.7 2972.5 2612.4 3019.9 2665.2 3019.9 2665.2 2972.5 " class="b"/><rect x="2562.6" y="2972.5" width="49.7" height="91.5" class="b"/></svg>